<svg xmlns="http://www.w3.org/2000/svg" height="800" width="1200" viewBox="-50.46 -13.575 437.32 81.45"><path d="M45.7 0c.2 0 .4.2.4.4V10c0 .2-.2.4-.4.4H10.8c-.2 0-.4.2-.4.4v42.3c0 .2-.2.4-.4.4H.4c-.2 0-.4-.2-.4-.4V.4C0 .2.2 0 .4 0h45.3zM22.8 21.6c-.3-.3-.6 0-.6.3v29.6c0 .5.3.6.6.2L38 37.6c.2-.2.2-.5 0-.7z" fill="#28a505"/><path d="M76.4 30.9H60.5v5.7h13.2c.4 0 .6.2.6.5v5.8c0 .4-.2.5-.6.5H60.5v9.4c0 .5 0 .6-.4.6h-7c-.3 0-.3 0-.3-.6v-28c0-.5 0-.6.3-.6h23.3c.3 0 .3.4.3.4v5.8c.1.2.1.5-.3.5zm33.7 8.1c0-8.4-6.6-15.3-15.3-15.3-8.7 0-15.3 6.8-15.3 15.3 0 8.4 6.6 15.2 15.3 15.2 8.7 0 15.3-6.8 15.3-15.2zm-8 0c0 4.4-2.7 7.9-7.2 7.9-4.6 0-7.2-3.4-7.2-7.9 0-4.4 2.6-7.9 7.2-7.9 4.5-.1 7.2 3.4 7.2 7.9zm38.3 13.3c-2.5-4-4.9-8.4-6.1-10.1 2.6-1.2 4-4 4-8 0-5.3-3.5-9.8-10.1-9.8h-13.3c-.1 0-.3 0-.3.4v28.4c0 .4 0 .4.3.4h7c.3 0 .3 0 .3-.4v-8.1l4.9-.1s3.1 4.9 4.6 7.7c.4.8.6.9.9.9h7.6c.6-.2.7-.5.2-1.3zm-10.2-17.6c0 2.5-1.3 4.2-3.6 4.3l-4.3.1v-8.4h4.3c2.4 0 3.6 1.7 3.6 4zm27.4 19.6c8.1 0 13-5.6 14-10.9.1-.5 0-.6-.2-.6h-7c-.3 0-.4.2-.4.3-1.3 2.6-3.3 3.8-6.2 3.8-4.3 0-7-3.4-7-8v.1c0-4.6 2.8-8 7-8 3 0 5 1.2 6.2 3.8 0 .1.1.3.4.3h7c.2 0 .3-.1.2-.6-1.1-5.3-5.9-10.9-14-10.9-8.4 0-15 6.5-15 15.3 0 8.9 6.6 15.4 15 15.4zm39.1-1.5v-5.5c0-.5-.1-.6-.6-.6h-12.5v-4.9h12c.4 0 .4-.1.4-.6V36c0-.5 0-.6-.4-.6h-12v-4.9h12.3c.3 0 .5-.1.5-.5v-5.2c0-.5 0-.6-.5-.6h-19.4c-.4 0-.4 0-.4.4v28.1c0 .5 0 .6.5.6h19.7c.4.1.4.1.4-.5zm32.6-17.3c0-6.6-3.8-11.2-10.2-11.2h-15.7c-.2 0-.4 0-.4.4v28.4c0 .4 0 .4.4.4h7c.3 0 .4 0 .4-.4V46s7.7.2 8.9 0c5.5-.7 9.6-3.5 9.6-10.5zm-7.9-.3c0 2.4-1.2 4.3-4.2 4.5h-6.4v-9h6.3c2.6 0 4.3 1.6 4.3 4.5zm42 3.8c0-8.4-6.6-15.3-15.3-15.3-8.7 0-15.3 6.8-15.3 15.3 0 8.4 6.6 15.2 15.3 15.2 8.7 0 15.3-6.8 15.3-15.2zm-8.1 0c0 4.4-2.7 7.9-7.2 7.9-4.6 0-7.2-3.4-7.2-7.9 0-4.4 2.6-7.9 7.2-7.9 4.6-.1 7.2 3.4 7.2 7.9zm20.3 14.1V24.7c0-.3 0-.4-.4-.4h-7.1c-.4 0-.4 0-.4.4v28.4c0 .4 0 .4.4.4h7.1c.4-.1.4-.1.4-.4zm60.8-21.5v-6.9c0-.3 0-.4-.3-.4h-25c-.3 0-.3.1-.3.4v6.9c0 .3 0 .3.3.3l8.7-.1V53c0 .4 0 .4.4.4h7.1c.3 0 .4 0 .4-.4V31.8l8.5.1c.1 0 .2 0 .2-.3zm-30.1 20.8V24.8c0-.4 0-.5-.4-.5h-6.5c-.3 0-.3 0-.3.5v13.7s-10.7-9.8-15.8-13.8c-1.3-1.1-1.4.1-1.4.5V53c0 .2.1.4.4.4h6.5c.4 0 .4 0 .4-.4V40.4s8.8 7.4 15.3 12.3c1.6 1.5 1.8.5 1.8-.3z"/></svg>