<svg xmlns="http://www.w3.org/2000/svg" height="800" width="1200" viewBox="-47.86041 -21.798375 414.79022 130.79025"><defs><clipPath clipPathUnits="userSpaceOnUse" id="c"><path d="M44.936 724.66h116.15v31.739H44.936z"/></clipPath><clipPath clipPathUnits="userSpaceOnUse" id="b"><path d="M44.946 725h114.9v31.4h-114.9z"/></clipPath><clipPath clipPathUnits="userSpaceOnUse" id="a"><path d="M44.936 724.66h116.15v31.739H44.936z"/></clipPath></defs><path fill="#61849c" d="M156.4834 70.0299h1.9604l10.0994 13.9258V70.03h1.7327v16.8887h-1.6439l-10.4159-14.3368v14.3368h-1.7327zm18.0991 0h11.1684v1.7105h-9.369v5.5815h9.1413v1.6883h-9.1413v6.2673h9.4607v1.6411h-11.26zm20.2168 1.7097h-6.3368V70.029h14.4757v1.7106h-6.3368v15.181h-1.8021zm10.3247-1.7097h1.8467l4.443 13.9703 4.5373-13.9703h1.5494l4.5124 13.9703 4.468-13.9703h1.7327l-5.426 17.0026h-1.5467l-4.5595-14.062-4.5374 14.062h-1.5717z"/><g clip-path="url(#a)" transform="matrix(2.77684 0 0 -2.77684 -124.8077 2100.3992)"><path fill="#61849c" d="M133.1884 728.1357c0 1.642-.763 2.528-2.422 2.528-1.65 0-2.405-.886-2.405-2.528 0-1.65.755-2.537 2.405-2.537 1.659 0 2.422.887 2.422 2.537m-5.475.008c0 2.167 1.108 3.135 3.053 3.135 1.954 0 3.07-.968 3.07-3.135 0-2.175-1.116-3.144-3.07-3.144-1.945 0-3.053.969-3.053 3.144m10.0798.0246c.862 0 1.395.263 1.395 1.223 0 .944-.517 1.19-1.419 1.19h-1.979v-2.413zm-.18-.591h-1.823v-2.479h-.632v6.082h2.627c1.412 0 2.052-.566 2.052-1.773 0-1.05-.501-1.666-1.56-1.805l1.469-2.504h-.689zm5.4497.7469l-1.215-1.329v-1.897h-.632v6.082h.632v-3.357l3.078 3.357h.747l-2.183-2.388 2.479-3.694h-.731zm3.4476-2.6102l.328.492c.73-.459 1.445-.615 2.175-.615 1.256 0 1.814.353 1.814 1.19 0 .862-.722.985-1.814 1.182-1.313.23-2.2.452-2.2 1.682 0 1.175.755 1.634 2.2 1.634.953 0 1.634-.213 2.118-.542l-.345-.525c-.435.287-1.083.476-1.773.476-1.091 0-1.559-.304-1.559-1.026 0-.772.632-.919 1.716-1.116 1.329-.238 2.289-.435 2.289-1.74 0-1.207-.771-1.789-2.429-1.789-.919 0-1.749.188-2.52.697"/><path fill="#231f20" d="M157.8189 756.3191c-8.551 0-8.914-3.831-8.914-9.236v-13.269h2.016v13.269c0 4.074-.161 7.341 6.898 7.341.756 0 1.427-.04 2.031-.111v1.921c-.623.055-1.295.085-2.031.085m-99.7315-13.8739v13.431h2.057v-13.471c0-3.872-.04-7.139 7.058-7.139 7.058 0 6.897 3.267 6.897 7.341v13.269h2.017v-13.269c0-5.405-.364-9.237-8.914-9.237-8.591 0-9.115 3.832-9.115 9.075m39.4694 4.7999v-13.431h-2.057v13.471c0 3.872.04 7.139-7.058 7.139-7.059 0-6.897-3.267-6.897-7.341v-13.269h-2.016v13.269c0 5.405.363 9.236 8.913 9.236 8.591 0 9.115-3.831 9.115-9.074M101.3 755.84h1.974v-22.021H101.3zm16.0098-12.3942c3.562 0 5.332 1.736 5.332 5.243 0 3.505-1.91 5.17-5.42 5.17h-8.277v-10.413zm-10.339 12.389h10.309c5.112 0 7.43-2.541 7.43-7.058 0-4.547-2.288-7.311-7.458-7.311h-8.307v-7.652h-1.974z"/></g><g clip-path="url(#b)" transform="matrix(2.77684 0 0 -2.77684 -124.8077 2100.3992)"><path fill="#231f20" d="M129.0252 746.3982h15.003c-.201 4.396-.484 8.147-6.897 8.147-6.17 0-7.864-3.348-8.106-8.147m-2.017-1.493c0 6.493 1.856 11.495 10.165 11.495 8.59 0 8.872-5.767 8.832-11.857h-17.02c.04-5.365 1.37-9.358 8.348-9.358 3.711 0 5.405 1.009 7.22 2.339l1.128-1.492c-2.016-1.492-4.395-2.662-8.348-2.662-8.711 0-10.325 5.042-10.325 11.535m-81.3048-15.8695c8.55 0 8.914 3.831 8.914 9.236v17.604h-2.017v-17.604c0-4.073.161-7.341-6.897-7.341-.267 0-.52.007-.767.017v-1.902c.248-.006.503-.01.767-.01"/></g><g clip-path="url(#c)" transform="matrix(2.77684 0 0 -2.77684 -124.8077 2100.3992)" fill="#231f20"><path d="M155.336 736.3229c-.669 0-1.213-.544-1.213-1.212 0-.668.544-1.212 1.213-1.212.667 0 1.211.544 1.211 1.212 0 .668-.544 1.212-1.211 1.212m0-2.604c-.768 0-1.393.624-1.393 1.392 0 .767.625 1.392 1.393 1.392s1.391-.625 1.391-1.392c0-.768-.623-1.392-1.391-1.392"/><path d="M155.4754 735.1253c.218 0 .344.063.344.297 0 .231-.122.284-.351.284h-.489v-.581zm-.05-.2h-.446v-.615h-.213v1.599h.712c.405 0 .561-.166.561-.482 0-.258-.11-.436-.386-.487l.361-.63h-.231z"/></g></svg>